<svg id="Camada_1" data-name="Camada 1" xmlns="http://www.w3.org/2000/svg" viewBox="0 0 450 360"><defs><style>.cls-1,.cls-10,.cls-2{isolation:isolate;}.cls-2{font-size:198.71px;fill:#8c8c8c;font-family:AvenirNextLTPro-Regular, Avenir Next LT Pro;}.cls-3{letter-spacing:-0.02em;}.cls-4{letter-spacing:0em;}.cls-5{fill:#232323;}.cls-6{fill:#2a2a2a;}.cls-7{fill:#fe4564;}.cls-8{fill:#ecd014;}.cls-9{fill:#00e3ab;}.cls-10{font-size:149.03px;fill:#182b29;font-family:OpenSans-SemiBold, Open Sans;font-weight:600;letter-spacing:0.1em;}.cls-11{fill:none;stroke:#28f5be;stroke-linecap:round;stroke-linejoin:round;stroke-width:2px;}</style></defs><title>404-error</title><g id="Grupo_29" data-name="Grupo 29"><g id="Grupo_27" data-name="Grupo 27"><g id="E" class="cls-1"><text class="cls-2" transform="translate(117.62 47.69) rotate(180)">E</text></g><g id="rror" class="cls-1"><text class="cls-2" transform="translate(117.62 188.78)">r<tspan class="cls-3" x="71.53" y="0">r</tspan><tspan class="cls-4" x="139.49" y="0">or</tspan></text></g></g><g id="Grupo_26" data-name="Grupo 26"><g id="Grupo_22" data-name="Grupo 22"><path id="Ret창ngulo_86" data-name="Ret창ngulo 86" class="cls-5" d="M142.45,170.89H426.56V348.74a2,2,0,0,1-2,2H144.44a2,2,0,0,1-2-2V170.89Z"/><path id="Ret창ngulo_87" data-name="Ret창ngulo 87" class="cls-6" d="M144.44,159H424.58a2,2,0,0,1,2,2v10.93H142.45V161A2,2,0,0,1,144.44,159Z"/><circle id="Elipse_6" data-name="Elipse 6" class="cls-7" cx="149.9" cy="165.43" r="2.48"/><circle id="Elipse_7" data-name="Elipse 7" class="cls-8" cx="156.86" cy="165.43" r="2.48"/><circle id="Elipse_8" data-name="Elipse 8" class="cls-9" cx="163.81" cy="165.43" r="2.48"/></g><g id="_404" data-name=" 404" class="cls-1"><text class="cls-10" transform="translate(142.45 317.94)">404</text></g><g id="Grupo_23" data-name="Grupo 23"><path id="Caminho_38" data-name="Caminho 38" class="cls-11" d="M342.62,230l-19.37-19.62"/><path id="Caminho_39" data-name="Caminho 39" class="cls-11" d="M342.62,210.39,323,230"/></g><g id="Grupo_24" data-name="Grupo 24"><path id="Caminho_38-2" data-name="Caminho 38-2" class="cls-11" d="M246.26,230l-19.37-19.62"/><path id="Caminho_39-2" data-name="Caminho 39-2" class="cls-11" d="M246.26,210.39,226.64,230"/></g><g id="Grupo_25" data-name="Grupo 25"><path id="Caminho_40" data-name="Caminho 40" class="cls-11" d="M225.9,282.17c5.81,0,5.81,6,11.61,6s5.81-6,11.61-6,5.81,6,11.62,6,5.81-6,11.61-6,5.8,6,11.61,6,5.81-6,11.61-6,5.82,6,11.63,6,5.81-6,11.61-6,5.81,6,11.62,6,5.81-6,11.63-6"/></g></g></g></svg>