<?xml version="1.0" encoding="utf-8"?>
<!-- Generator: Adobe Illustrator 17.0.0, SVG Export Plug-In . SVG Version: 6.00 Build 0)  -->
<!DOCTYPE svg PUBLIC "-//W3C//DTD SVG 1.1//EN" "http://www.w3.org/Graphics/SVG/1.1/DTD/svg11.dtd">
<svg version="1.1" id="Camada_1" xmlns="http://www.w3.org/2000/svg" xmlns:xlink="http://www.w3.org/1999/xlink" x="0px" y="0px"
	 width="200px" height="200px" viewBox="0 0 200 200" style="enable-background:new 0 0 200 200;" xml:space="preserve">
<style type="text/css">
	@keyframes rotateAnime {
		0% {
			transform: rotate(0deg);
		}
		100% {
			transform: rotate(-360deg);
		}
	}
	.st0{fill:#232323;}
	.st1{
		fill:none;
		stroke:#28F5BE;
		stroke-linecap:round;
		stroke-linejoin:round;
		stroke-dasharray:1.9975,4.9939;
		animation: rotateAnime 15s linear infinite;
		transform-origin: 50% 50%;
		}
	.st2{fill:url(#shadow_1_);}
	.st3{fill:#28F5BE;}
	.st4{fill:none;stroke:url(#circle-white_1_);stroke-miterlimit:10;}
</style>
<rect id="background" x="-0.027" class="st0" width="200" height="200"/>
<g id="circle-dot">
	<circle class="st1" cx="100" cy="100" r="48.972"/>
</g>
<linearGradient id="shadow_1_" gradientUnits="userSpaceOnUse" x1="298.7505" y1="-274.9722" x2="297.51" y2="-88.2935" gradientTransform="matrix(1 0 0 -1 -197.66 -119.96)">
	<stop  offset="0" style="stop-color:#232323"/>
	<stop  offset="0.8587" style="stop-color:#232323;stop-opacity:0.1413"/>
	<stop  offset="1" style="stop-color:#232323;stop-opacity:0"/>
</linearGradient>
<rect id="shadow" x="45.214" y="100.24" class="st2" width="111.384" height="54.028"/>
<g id="ui">
	<path class="st3" d="M103.527,89.91v13.48c0,2.105-0.61,3.749-1.832,4.929c-1.222,1.181-2.876,1.771-4.963,1.771
		c-2.087,0-3.741-0.59-4.963-1.771c-1.222-1.18-1.837-2.805-1.846-4.874V89.91h0.738v13.453c0,1.842,0.554,3.3,1.661,4.375
		c1.107,1.076,2.577,1.613,4.409,1.613c1.832,0,3.3-0.537,4.402-1.613c1.103-1.075,1.654-2.538,1.654-4.389V89.91H103.527z"/>
	<path class="st3" d="M110.076,109.816h-0.738V89.91h0.738V109.816z"/>
</g>
<linearGradient id="circle-white_1_" gradientUnits="userSpaceOnUse" x1="269.5582" y1="-191.8581" x2="325.7618" y2="-248.0618" gradientTransform="matrix(1 0 0 -1 -197.66 -119.96)">
	<stop  offset="0" style="stop-color:#FFFFFF"/>
	<stop  offset="0.3174" style="stop-color:#FDFDFD"/>
	<stop  offset="0.4792" style="stop-color:#F5F5F5"/>
	<stop  offset="0.6059" style="stop-color:#E8E8E9"/>
	<stop  offset="0.7144" style="stop-color:#D5D5D6"/>
	<stop  offset="0.8111" style="stop-color:#BDBCBF"/>
	<stop  offset="0.8995" style="stop-color:#9F9EA1"/>
	<stop  offset="0.9801" style="stop-color:#7C7B80"/>
	<stop  offset="1" style="stop-color:#727176"/>
</linearGradient>
<circle id="circle-white" class="st4" cx="100" cy="100" r="39.242"/>
</svg>
