<svg id="Camada_1" data-name="Camada 1" xmlns="http://www.w3.org/2000/svg" viewBox="0 0 20 100"><defs><style>.cls-1{fill:#00f4bc;}</style></defs><title>language-icon</title><polygon class="cls-1" points="20 76.54 19.65 80.6 13.89 80.6 13.89 85 19.16 85 18.04 97.87 10.18 100 10.18 95.73 15.09 94.43 15.44 88.92 10.18 89.4 10.18 76.54 20 76.54"/><polygon class="cls-1" points="4.84 76.54 8.42 76.54 8.42 100 0.56 97.8 0 91.4 2.88 91.74 2.95 94.01 5.47 94.77 4.84 76.54"/><polygon class="cls-1" points="0 0 1.19 11.95 14.83 11.82 14.37 16.95 9.93 18.25 5.56 16.95 5.3 13.9 1.19 13.9 1.72 20 9.93 22.14 18.21 19.93 19.2 7.79 4.64 7.79 4.3 3.9 19.54 3.9 20 0 0 0"/><polygon class="cls-1" points="0 37.49 20 37.49 18.29 57.59 10 59.83 1.79 57.52 1.14 51.5 5.29 51.5 5.5 54.44 10 55.63 14.5 54.51 14.86 49.33 5.64 49.33 5.14 45.41 15.43 45.41 15.64 41.34 0.36 41.48 0 37.49"/></svg>