<svg xmlns="http://www.w3.org/2000/svg" xmlns:xlink="http://www.w3.org/1999/xlink" viewBox="0 0 301 238.86"><defs><style>.cls-1{isolation:isolate;}.cls-2{opacity:0.25;mix-blend-mode:multiply;}.cls-3{fill:#28f5be;}.cls-4{fill:#1e1e1e;}.cls-5{fill:#232323;}.cls-6{fill:#fff;}.cls-7,.cls-9{fill:#fbbd2c;}.cls-8{fill:#f8a82b;}.cls-9{stroke:#1e1e1e;}.cls-10,.cls-11,.cls-12,.cls-13,.cls-14,.cls-15,.cls-16,.cls-17,.cls-18,.cls-19,.cls-20,.cls-9{stroke-miterlimit:10;}.cls-10,.cls-11,.cls-12,.cls-13,.cls-14,.cls-15,.cls-16,.cls-17,.cls-18,.cls-19,.cls-20{stroke:#fff;stroke-width:0.5px;}.cls-10{fill:url(#Gradiente_sem_nome_42);}.cls-11{fill:url(#Gradiente_sem_nome_42-2);}.cls-12{fill:url(#Gradiente_sem_nome_42-3);}.cls-13{fill:url(#Gradiente_sem_nome_42-4);}.cls-14{fill:url(#Gradiente_sem_nome_42-5);}.cls-15{fill:url(#Gradiente_sem_nome_42-6);}.cls-16{fill:url(#Gradiente_sem_nome_42-7);}.cls-17{fill:url(#Gradiente_sem_nome_42-8);}.cls-18{fill:url(#Gradiente_sem_nome_42-9);}.cls-19{fill:url(#Gradiente_sem_nome_42-10);}.cls-20{fill:url(#Gradiente_sem_nome_42-11);}</style><linearGradient id="Gradiente_sem_nome_42" x1="84.85" y1="269.69" x2="84.76" y2="244" gradientUnits="userSpaceOnUse"><stop offset="0.01" stop-color="#e6e6e6"/><stop offset="0.48" stop-color="#e6e6e6"/><stop offset="0.55" stop-color="#fbfbfb"/><stop offset="1" stop-color="#fbfbfb"/></linearGradient><linearGradient id="Gradiente_sem_nome_42-2" x1="98.67" y1="269.77" x2="99.06" y2="243.93" xlink:href="#Gradiente_sem_nome_42"/><linearGradient id="Gradiente_sem_nome_42-3" x1="112.81" y1="269.73" x2="113.02" y2="243.97" xlink:href="#Gradiente_sem_nome_42"/><linearGradient id="Gradiente_sem_nome_42-4" x1="123.19" y1="269.71" x2="123.66" y2="243.99" xlink:href="#Gradiente_sem_nome_42"/><linearGradient id="Gradiente_sem_nome_42-5" x1="134.45" y1="269.73" x2="134.69" y2="243.96" xlink:href="#Gradiente_sem_nome_42"/><linearGradient id="Gradiente_sem_nome_42-6" x1="149.02" y1="269.73" x2="149.23" y2="244.04" xlink:href="#Gradiente_sem_nome_42"/><linearGradient id="Gradiente_sem_nome_42-7" x1="165.11" y1="269.75" x2="165.41" y2="243.95" xlink:href="#Gradiente_sem_nome_42"/><linearGradient id="Gradiente_sem_nome_42-8" x1="175.54" y1="269.71" x2="176" y2="243.99" xlink:href="#Gradiente_sem_nome_42"/><linearGradient id="Gradiente_sem_nome_42-9" x1="187.11" y1="269.72" x2="186.92" y2="243.98" xlink:href="#Gradiente_sem_nome_42"/><linearGradient id="Gradiente_sem_nome_42-10" x1="201.39" y1="269.68" x2="200.94" y2="243.92" xlink:href="#Gradiente_sem_nome_42"/><linearGradient id="Gradiente_sem_nome_42-11" x1="215.5" y1="269.81" x2="214.88" y2="243.89" xlink:href="#Gradiente_sem_nome_42"/></defs><title>logo</title><g class="cls-1"><g id="Camada_1" data-name="Camada 1"><g class="cls-2"><path d="M209.92,287.11s-16.51,28.37-51.29,32.82H142.86s-30.8-2.69-51.35-32.35c0,0,12.87-6.87,21.36-16.85,0,0-7.61-10.37-15.9-3.43L83.42,252.2,87.06,247s-24.66-3.58-37.33-17.26c0,0-18.61-7.61-27.57-20.28l7.41-.41S5,197,1,169.51l7.75,2.43s-13.85-34.68,10.61-64.2l4.45,12.94s2.93-23.55,14.86-38.11c0,0,2.63,27.7,13.55,41.85,0,0,6.67-12.53,15.87-16.78s8.69-6.47,8.69-6.47-5.86,33.26,15.47,56.41c0,0,2.73-26.79,11.93-38.11,0,0,5.15,18.3,16.58,30.43,0,0,4.65-8,13.34-9.3l.3,10.92s17.29-11.73,32.25-.1l.2-11s9.51,3.23,13.35,9.09A74.27,74.27,0,0,0,197,119.37s8.09,5.26,11.62,39.43c0,0,24.06-24.17,16.58-57.42,0,0,23.56,14.05,24.16,23.15,0,0,9.4-6.37,14.86-42.46,0,0,10.92,17.18,14.46,38.41l4.45-12.43s22.54,25.27,9.9,63.48c0,0,2.83,1.22,8-2.52,0,0-.81,23.65-28.51,40l7.38.3s-10.41,13.65-31.23,23c0,0-11.43,11.42-33.67,14.45l3.34,5.77L205.67,267s-7.88-6.17-16.27,3.54C189.4,270.5,197.28,282.19,209.92,287.11Z" transform="translate(0 -81.07)"/></g><path class="cls-3" d="M208.92,286.11s-16.51,28.37-51.29,32.82H141.86s-30.8-2.69-51.35-32.35c0,0,12.87-6.87,21.36-16.85,0,0-7.61-10.37-15.9-3.43L82.42,251.2,86.06,246s-24.66-3.58-37.33-17.26c0,0-18.61-7.61-27.57-20.28l7.41-.41S4,196,0,168.51l7.75,2.43s-13.85-34.68,10.61-64.2l4.45,12.94s2.93-23.55,14.86-38.11c0,0,2.63,27.7,13.55,41.85,0,0,6.67-12.53,15.87-16.78s8.69-6.47,8.69-6.47-5.86,33.26,15.47,56.41c0,0,2.73-26.79,11.93-38.11,0,0,5.15,18.3,16.58,30.43,0,0,4.65-8,13.34-9.3l.3,10.92s17.29-11.73,32.25-.1l.2-11s9.51,3.23,13.35,9.09A74.27,74.27,0,0,0,196,118.37s8.09,5.26,11.62,39.43c0,0,24.06-24.17,16.58-57.42,0,0,23.56,14.05,24.16,23.15,0,0,9.4-6.37,14.86-42.46,0,0,10.92,17.18,14.46,38.41l4.45-12.43s22.54,25.27,9.9,63.48c0,0,2.83,1.22,8-2.52,0,0-.81,23.65-28.51,40l7.38.3s-10.41,13.65-31.23,23c0,0-11.43,11.42-33.67,14.45l3.34,5.77L204.67,266s-7.88-6.17-16.27,3.54C188.4,269.5,196.28,281.19,208.92,286.11Z" transform="translate(0 -81.07)"/><path class="cls-4" d="M97.21,287.19s19.21,25.37,47.72,27.09h13.54s34.27-6.06,44.59-27.09c0,0-13.15-5.36-19.82-17.79,0,0,8.39-13.85,19.82-8.59l9.3-10-6.17-8.29s17.18.3,37.1-12.64l-8.59-1s21.83-2.73,34.87-17.49c0,0-10.51-.1-14.25-1.92,0,0,28.2-6.27,38.51-34.67,0,0-3.23,2.12-9.7,3.33,0,0,17.79-29-.81-61.76,0,0-3,11.42-8.69,18,0,0-.71-24.16-9.71-40.33,0,0-3.94,25.88-16.88,36.9a55,55,0,0,0-19.11-22.35s8.7,24.27-27,62.07c0,0,2.63-15-.1-22.34,0,0-.3,2.53-1.21,2.63,0,0,.65-19.41-4.53-22.44,0,0-5.07,17.79-17.71,26.38a23,23,0,0,0-8-9.09s.51,5.86-2.52,10c0,0-18.3-14.35-35.49.31a11.85,11.85,0,0,1-3.94-10.42s-3.91,1.69-7.42,8.64c0,0-5.32,2.59-18.86-26.23,0,0-4.55,5.06-3.44,22.75l-2.73-2s-1.51,12.33,1.32,21.53c0,0-29.66-25.41-26.59-61.16A48.37,48.37,0,0,0,52.53,131s-12-6.57-17.28-37.51c0,0-9.4,15.87-9.71,41.55a52.73,52.73,0,0,1-8.69-18.9s-18.7,29.11-1,61.66a30.2,30.2,0,0,1-10.11-2.93s9.3,26.45,38.92,35.21c0,0-5.56,1.59-14.66,1.08,0,0,14.76,15.47,34.77,17.39,0,0-2.42,1.51-7.58.71,0,0,8.9,11.12,36.5,13.24l-5.56,8.29,8.49,9.7s12.13-5.25,19.81,9.1A36.3,36.3,0,0,1,97.21,287.19Z" transform="translate(0 -81.07)"/><path class="cls-5" d="M244,182.66s5.47,12.84,21.34,11.43c0,0-23.16,23.75-43.26,2.53A26.11,26.11,0,0,0,238.61,218s-14.83,17.59-34.14,10.11l-.11,5a24.73,24.73,0,0,1-17.88-4.76s11.15-2.76,13.39-19.4c.19-1.36.3-2.8.36-4.35l5,.1s-1.42-12.33-10.71-19.41l0,0,0,0c.31-.54,3.18-4.77,21.38-17.43,0,0,11.84-8.69,20.52-38.51,0,0,8.9,5.55,10.12,22.34a30.4,30.4,0,0,0,2.72-10.92s6.67-3.94,14.15-17.59c0,0,6.07,12.43-1.72,36.89l0,0c.37-.64,6.64-10.95,12.82-13.11,0,0,3.12-1.41,7.37-6.26,0,0,7.49,31.34-21.73,43.57A63.39,63.39,0,0,1,244,182.66Z" transform="translate(0 -81.07)"/><path class="cls-3" d="M233.58,177.3S235,185.6,250,195.1c0,0-18,2.63-36.49-10.92,0,0-3.43,13.14,3.63,24.77H199.87c.19-1.36.3-2.8.36-4.35l5,.1s-1.42-12.33-10.71-19.41l0,0,0,0c.57-.72,6.42-7.74,20.77-13.48,0,0,16.39-10.21,24.47-27.29,0,0,4.66,5.66,4.66,15.86,0,0,8.49-10.31,13.14-20.11,0,0,3.63,7.37,4.13,19.8l0,0c.37-.64,6.64-10.95,12.82-13.11,0,0,3.12-1.41,7.37-6.26C281.9,140.61,277.65,179.12,233.58,177.3Z" transform="translate(0 -81.07)"/><path class="cls-5" d="M113.63,228.76c-10.52,5.39-18.2,3.91-18.2,3.91l-.27-4.32C75.07,235,61.4,217.71,61.4,217.71c18.51-8.18,15.83-20.9,15.83-20.9-17.08,21.6-41.91-2.69-41.91-2.69,16.3-.67,21-11.59,21-11.59l-15.77,1.89C10.24,175,18.19,140.48,18.19,140.48A13.08,13.08,0,0,0,24.53,146c6.65,2.35,13.45,12.93,13.86,13.58l0,0a74.37,74.37,0,0,1-1.75-36.49c1.62,7.31,14,17.09,14,17.09,1.22,9.16,3.51,11.85,3.51,11.85.26-17.92,10.1-22.91,10.1-22.91,1.36,17.39,18.87,37.47,18.87,37.47,13.88,10.21,19.57,15.86,21.52,18l.34.38a6.8,6.8,0,0,1,.52.63c-8.23,5.12-10.92,18.87-10.92,18.87l5.4.26a33.22,33.22,0,0,0,.41,4.3C102.74,224.86,113.63,228.76,113.63,228.76Z" transform="translate(0 -81.07)"/><path class="cls-3" d="M94.62,204.5l5.4.26a33.22,33.22,0,0,0,.41,4.3,50,50,0,0,1-17.81-.65c7.42-14.29,4-24.53,4-24.53-18.19,13.47-36.8,10.92-36.8,10.92,10.1-6.2,16.85-17.39,16.85-17.39-42.59,3.77-48.53-36.93-48.53-36.93A13.08,13.08,0,0,0,24.53,146c6.65,2.35,13.45,12.93,13.86,13.58l0,0c.4-14.42,4.32-20.34,4.32-20.34,2.29,10.5,13.61,20.62,13.61,20.62-1-10,4.18-15.92,4.18-15.92a60.36,60.36,0,0,0,24.12,27.91c12.86,6.24,18.16,10.82,20,12.74l.34.38a6.8,6.8,0,0,1,.52.63C97.31,190.75,94.62,204.5,94.62,204.5Z" transform="translate(0 -81.07)"/><path class="cls-5" d="M171.17,287.13l2.43,12.12-9.16-1.48-.4,4.45s-7.69-2.16-11-4.72l-3.27,8.76-4.07-8.89-9.17,5.12-1.21-5-8.91,1.35,2.71-13.07s-5.94,5.66-18.2,3.64c0,0,11.32-10,15.23-19.68,0,0,6.68-15.71,21.14-1.89.87.82,1.77,1.77,2.7,2.83a28.81,28.81,0,0,1,2.72-2.83c4.79-4.48,14.82-11.36,21,2,0,0,6.47,12.26,15,19.68C188.7,289.55,184.52,291.71,171.17,287.13Z" transform="translate(0 -81.07)"/><path class="cls-3" d="M164.84,289.68h-5.52l.94,3-8.76-4.58-1.5,4.58-1.87-5.26-7.41,5.94-.41-4.05-4.85.54,2.16-14.42a43.51,43.51,0,0,1-11.06,6.47,45.29,45.29,0,0,0,8.9-14H147.3c.87.82,1.77,1.77,2.7,2.83a28.81,28.81,0,0,1,2.72-2.83h12.12s-.33,4.25,8.09,13.07c0,0-4.17,0-10.92-6.53Z" transform="translate(0 -81.07)"/><path class="cls-5" d="M149.82,239.75s3.57-8,15.09-5.8c0,0,6.27.4,9-4.65,0,0-.2,8.89-10.78,14.15h5.66a59.88,59.88,0,0,1-11.93,7.75,19.48,19.48,0,0,0-6.89,9.23s-3.22-7.88-6.59-9.09-9.1-4.45-11.66-7.75l4.79.06s-9.23-4.11-10.38-14.35c0,0,.88,3.5,9.43,4.65S143.69,232.33,149.82,239.75Z" transform="translate(0 -81.07)"/><path class="cls-3" d="M136.81,237.66s11.49,1,13.19,5.86a15.46,15.46,0,0,1,13.5-5.86,17.06,17.06,0,0,0-8.83,7.21l4.92,1.34s-8.16,3.17-9.44,8.77c0,0-2.74-7.55-9.84-8.68l4.58-1.43S143.61,240.82,136.81,237.66Z" transform="translate(0 -81.07)"/><path class="cls-5" d="M149.82,224.31s6.67-7.41,21.22-9.7c0,0,8.76-4.18,10.92-13.21v5.93a28.08,28.08,0,0,0,8.9-16.44s5.52,3,6.33,8.22H193s3.24,13.75-5.79,22.91l-.74-8.49s-4.11,12.26-20.56,10.78c0,0-11.06.34-15.77,5.66,0,0-5.12-5.25-18.73-5.66,0,0-11.59,1.75-17.79-10.24v8.22s-10.38-6.84-6.48-22.29H102s2.43-7.09,7.15-9.11c0,0,2.69,11.86,8.35,16.3l.41-6.06s5.66,13.48,17.39,15.23C135.33,216.36,143,217,149.82,224.31Z" transform="translate(0 -81.07)"/><path class="cls-3" d="M110.12,211.37l-.81-9.84s6.27,11.83,22.51,16.45c0,0,14.29,1.88,17.79,8.62,0,0,6.74-7.81,24.33-10.64,0,0,14.22-7.55,16.11-14.43v10.79l-2.7-3.37s-5.18,11.36-24.8,14.28c0,0-9.27.11-12.4,6.74,0,0-2.42-5.39-13.34-7,0,0-16.72-1.07-24.8-14.82Z" transform="translate(0 -81.07)"/><path class="cls-5" d="M196.32,158.61s-.24,12.63-28.45,22.13a27.69,27.69,0,0,0-18.19,14.56,30.73,30.73,0,0,0-19.91-15.57s-22.55-6.16-25.69-20.52c0,0,3.25,3,6.88,3.63,0,0-8.69-8.68-6.88-19.91v0c.29.87,4.63,13.72,21.43,22.6,0,0-.61-5.15,1.82-6.17,0,0,.71,8,11.93,15.17,0,0,7,3.54,10.73,9.91,0,0,2.11-6,14.64-12.34,0,0,7.38-6.57,8.18-13.25a11.57,11.57,0,0,1,2.24,6.37s17.08-10.92,20.92-22.34c0,0,2.53,10.21-6.17,19.41A9.81,9.81,0,0,0,196.32,158.61Z" transform="translate(0 -81.07)"/><path class="cls-3" d="M188.9,166.56c-4,5.16-16.44,8-16.44,8-17.66,4-22.78,17.46-22.78,17.46-.2-8.09-12.27-14-12.27-14-22.17-7-26.14-11.77-26.14-11.77,4.57,1.06,6.47-1.35,6.47-1.35-11.82-6.46-13.55-21-13.65-21.89.29.87,4.63,13.72,21.43,22.6,0,0-.61-5.15,1.82-6.17,0,0,.71,8,11.93,15.17,0,0,7,3.54,10.73,9.91,0,0,2.11-6,14.64-12.34,0,0,7.38-6.57,8.18-13.25a11.57,11.57,0,0,1,2.24,6.37s17.08-10.92,20.92-22.34c-.13,14.46-13.89,22-13.89,22C184.05,167.7,188.9,166.56,188.9,166.56Z" transform="translate(0 -81.07)"/><path class="cls-5" d="M184.52,198.1,183,193l0,0c-.5.7-8.59,11.85-12.11,12.64,0,0-.21-5.07-2.73-5.16,0,0-8.55,12.83-18,18.59,0,0-14.82-8.58-19.77-18.29l-.42,5.46s-7.24-4.84-10.9-9.86c-1.06-1.81-1.66-3.12-1.82-3.46a.09.09,0,0,1,0-.06v0L115,197.76c-5.53-17.93,0-22.37,0-22.37a14.43,14.43,0,0,1,3.88,2.19l0,0c3.54,2.89,3,6.13,3,6.13l-5,.28c2.56,6.19,15.1,9.56,15.1,9.56-1.08,2.16-5,2.83-5,2.83,10.25.27,16-2.15,16-2.15,2,14.55,4.9,19.42,6.16,20.9a3.26,3.26,0,0,0,.57.56l0,0c5.42-5.05,7.11-21.9,7.11-21.9,11.12,4.3,15.91,1.45,15.91,1.45-3.78-.43-3.92-2.39-3.92-2.39C182.23,190.21,183,184,183,184l-4.72-.14c.74-3.87,2-6,3.12-7.14a3.88,3.88,0,0,1,3.08-1.35C191.4,182.39,184.52,198.1,184.52,198.1Z" transform="translate(0 -81.07)"/><path class="cls-3" d="M184.52,198.1,183,193l0,0c-.5.7-8.59,11.85-12.11,12.64,0,0-.21-5.07-2.73-5.16,0,0-8.55,12.83-18,18.59,0,0-14.82-8.58-19.77-18.29l-.42,5.46s-7.24-4.84-10.9-9.86a11.36,11.36,0,0,1-1.82-3.46.09.09,0,0,1,0-.06v0L115,197.76c-5.53-17.93,0-22.37,0-22.37a14.43,14.43,0,0,1,3.88,2.19l0,0c.19.29,1.36,2,0,3.44H114.5s1.61,10.71,10.41,13.33L121.78,197l18.7,1.07s0,8.5,8.69,17.07l.57.56,0,0S158.57,211,160,198.09l18-1-2.62-3.24s10.41-4,9.6-12.83l-3.44-.51a5.2,5.2,0,0,1-.08-3.8,3.88,3.88,0,0,1,3.08-1.35C191.4,182.39,184.52,198.1,184.52,198.1Z" transform="translate(0 -81.07)"/><g id="olhos"><path class="cls-6" d="M158.31,187.45l3.57-1.55s4.38,4,6.06-2.77l6.88-2.62S171.78,198.5,158.31,187.45Z" transform="translate(0 -81.07)"/><path class="cls-6" d="M125.69,180.51l7.34,3s-.27,6.47,6.07,2.9l2.29,1.35S127.78,198.64,125.69,180.51Z" transform="translate(0 -81.07)"/></g><path class="cls-6" d="M131.48,162.75s17.59-18.05,37.2,0c0,0-1.49,4.8-10.37,10.61,0,0-7,3.59-8.31,7.74,0,0-1.79-4.3-9.37-7.59A22.79,22.79,0,0,1,131.48,162.75Z" transform="translate(0 -81.07)"/><path class="cls-7" d="M153.52,202.28l-3.74,9.43-3.2-9.43c1.12-2.48,2.22-3.4,3.2-3.5C151.94,198.56,153.52,202.28,153.52,202.28Z" transform="translate(0 -81.07)"/><path class="cls-8" d="M149.78,198.78v12.93l-3.2-9.43C147.7,199.8,148.8,198.88,149.78,198.78Z" transform="translate(0 -81.07)"/><ellipse class="cls-9" cx="200.21" cy="168.36" rx="4.97" ry="4.67"/><path class="cls-9" d="M192.41,237l8,7.87s3.23,6.74-5.26,9.16c0,0-5.95.81-7-3.43l2.33-7.79Z" transform="translate(0 -81.07)"/><path class="cls-7" d="M178.61,260.17a9,9,0,0,1-3.8-1,8.09,8.09,0,0,1-3.9-5.14c-.46-2.37.43-4.91,2.65-7.56.1-.09,3.45-2.95,2.66-6.3l-.2-.82.81.22a8.9,8.9,0,0,0,2,.22,7.68,7.68,0,0,0,5.27-1.93c.11-.1,3-2.88,5.72-2.88,1.17,0,2.76.53,3.65,3.09a9.06,9.06,0,0,1,.73,6.47c-.72,2.58-2.66,4.75-5.78,6.46l-.79.43,0-.89s.2-4.37-1.46-6.12a2.08,2.08,0,0,0-1.59-.68,4.35,4.35,0,0,0-1.79.46c-1.17.69-4.31,3-4.23,5,0,.91.76,1.73,2.17,2.44h5l-.09.57C185.75,252.3,184.43,260.17,178.61,260.17Z" transform="translate(0 -81.07)"/><path class="cls-4" d="M189.84,235.51c1.26,0,2.45.69,3.17,2.75,0,0,4.29,7.35-4.82,12.34,0,0,.39-7.33-3.54-7.33a4.8,4.8,0,0,0-2,.5s-8.72,5.11-2,8.38h4.58s-1.19,7.52-6.65,7.52a8.42,8.42,0,0,1-3.59-.92s-7.62-4.11-1.08-11.93c0,0,3.64-3,2.76-6.74a9,9,0,0,0,2.15.24,8.12,8.12,0,0,0,5.6-2.06s2.85-2.75,5.39-2.75m0-1c-2.86,0-5.76,2.72-6.08,3a7.17,7.17,0,0,1-4.91,1.78,8.61,8.61,0,0,1-1.89-.2l-1.61-.43.38,1.62c.72,3.05-2.4,5.72-2.43,5.74l-.07.06-.06.07c-2.31,2.77-3.24,5.45-2.76,8a8.71,8.71,0,0,0,4.13,5.48h.05a9.41,9.41,0,0,0,4,1c6.25,0,7.59-8,7.64-8.37l.18-1.15h-5.51c-1.16-.6-1.77-1.26-1.8-2-.06-1.54,2.4-3.58,4-4.53a3.83,3.83,0,0,1,1.53-.39,1.59,1.59,0,0,1,1.23.53c1.25,1.32,1.38,4.59,1.32,5.74l-.1,1.79,1.58-.86c3.24-1.78,5.27-4.05,6-6.77a9.71,9.71,0,0,0-.77-6.85c-1-2.76-2.77-3.34-4.09-3.34Z" transform="translate(0 -81.07)"/><ellipse class="cls-9" cx="100.54" cy="168.36" rx="4.97" ry="4.67"/><path class="cls-9" d="M108.34,237l-8,7.87s-3.23,6.74,5.26,9.16c0,0,6,.81,7-3.43l-2.32-7.79Z" transform="translate(0 -81.07)"/><path class="cls-7" d="M122.13,260.17c-5.82,0-7.13-7.87-7.14-8l-.09-.57h5c1.41-.71,2.14-1.53,2.17-2.44.08-2-3.06-4.29-4.28-5a4.35,4.35,0,0,0-1.74-.43,2.1,2.1,0,0,0-1.6.68c-1.65,1.75-1.45,6.08-1.45,6.12l0,.89-.79-.43c-3.12-1.71-5.07-3.88-5.78-6.46a9.16,9.16,0,0,1,.77-6.56c.85-2.47,2.44-3,3.61-3,2.71,0,5.61,2.78,5.73,2.89a7.66,7.66,0,0,0,5.26,1.92,8.86,8.86,0,0,0,2-.22l.81-.22-.19.82c-.79,3.35,2.56,6.21,2.6,6.24q3.41,4.06,2.71,7.62a8.12,8.12,0,0,1-3.87,5.13,9.09,9.09,0,0,1-3.83,1Z" transform="translate(0 -81.07)"/><path class="cls-4" d="M110.91,235.51c2.54,0,5.38,2.75,5.38,2.75a8.15,8.15,0,0,0,5.61,2.06,9,9,0,0,0,2.14-.24c-.87,3.71,2.77,6.74,2.77,6.74,6.53,7.82-1.08,11.93-1.08,11.93a8.42,8.42,0,0,1-3.6.92c-5.46,0-6.65-7.52-6.65-7.52h4.59c6.74-3.27-2-8.38-2-8.38a4.8,4.8,0,0,0-2-.5c-3.93,0-3.55,7.33-3.55,7.33-9.1-5-4.82-12.34-4.82-12.34.72-2.06,1.91-2.75,3.18-2.75m0-1c-1.32,0-3.1.58-4.09,3.34a9.65,9.65,0,0,0-.77,6.85c.75,2.72,2.78,5,6,6.77l1.57.86-.09-1.79c-.06-1.15.06-4.42,1.32-5.74a1.59,1.59,0,0,1,1.23-.53,3.83,3.83,0,0,1,1.53.39c1.59,1,4.05,3,4,4.53,0,.7-.63,1.36-1.79,2h-5.52l.19,1.15c0,.34,1.39,8.37,7.63,8.37a9.45,9.45,0,0,0,4-1h0a8.67,8.67,0,0,0,4.13-5.48c.49-2.52-.44-5.2-2.76-8l0-.07-.07-.06s-3.15-2.69-2.43-5.74l.38-1.64-1.62.45a8.34,8.34,0,0,1-1.88.2,7.21,7.21,0,0,1-4.93-1.79c-.3-.3-3.2-3-6.06-3Z" transform="translate(0 -81.07)"/><path class="cls-3" d="M71.25,240.23h157.5v35.85l-8.47,8.07s-68.72-9-141,0l-8-8.07Z" transform="translate(0 -81.07)"/><path class="cls-4" d="M75,240.23H225v33l-8.07,7.43s-65.45-8.28-134.29,0L75,273.21Z" transform="translate(0 -81.07)"/><path class="cls-10" d="M86.92,244l3.82,2v21.7l-3.82,2h-8V244h8Zm-.37,16.49V248.44l-1.28-.66h-2.2v18.14h2.2l1.28-.66Z" transform="translate(0 -81.07)"/><path class="cls-11" d="M100.61,244h4.18v25.66h-4.18V259.55h1.28l-.07,0-1.21-.62-3.49-1.82v12.6H92.94V244h7.67Zm0,10.75v-7H97.12V253Z" transform="translate(0 -81.07)"/><path class="cls-12" d="M118.84,244v25.66h-4.18V252.76h1.28l-4.77-2.47v19.39H107V244l7.67,4v-4Z" transform="translate(0 -81.07)"/><path class="cls-13" d="M126.65,257.61l-1.1-.56v12.63h-4.18l0-3.92V255.6h1.25l-1.29-.66v0l-1.06-.56v-4.09l1.06.53V244h4.18V253l1.1.56Z" transform="translate(0 -81.07)"/><path class="cls-14" d="M141,244V252h-4.18v-4.19h-3.49V253l4.26,2.21v4.09l-4.26-2.21v8.84h3.49v-5.08L141,263v6.69H129.15V255.5h1.1l-1.1-.56-1.06-.56v-4.09l1.06.52V244H141Z" transform="translate(0 -81.07)"/><path class="cls-15" d="M155.05,263v6.69H143.2V244h4.18v21.9h3.49v-5.08Z" transform="translate(0 -81.07)"/><path class="cls-16" d="M171.18,244v8H167v-4.26h-3.48V253l7.66,4v12.73H159.33V259.62h4.19v6.3H167v-6.37h1.28l-.07,0L167,258.9l-7.67-4V244h11.85Z" transform="translate(0 -81.07)"/><path class="cls-17" d="M179,257.61l-1.1-.56v12.63h-4.19l0-3.92V255.6H175l-1.29-.66v0l-1.06-.56v-4.09l1.06.53V244h4.19V253l1.1.56Z" transform="translate(0 -81.07)"/><path class="cls-18" d="M193,263v6.69H181.16V244h4.18v21.9h3.49v-5.08Z" transform="translate(0 -81.07)"/><path class="cls-19" d="M207.06,244v22.59l-1.32.66-4.62,2.41-5.25-2.74-.66-.33V244h4.18v20.65l1.73.92,1.76-.92V244Z" transform="translate(0 -81.07)"/><path class="cls-20" d="M216.93,244h4.18v25.66h-4.18V259.55h1.29l-.08,0-1.21-.62-3.48-1.82v12.6h-4.19V244h7.67Zm0,10.75v-7h-3.48V253Z" transform="translate(0 -81.07)"/><path class="cls-3" d="M129.94,274.52h-.42V272H131v.35h-1v.8h1v.36h-1Z" transform="translate(0 -81.07)"/><path class="cls-3" d="M131.85,273.5v1h-.42V272h.73a1.21,1.21,0,0,1,.73.18.67.67,0,0,1,.24.56.72.72,0,0,1-.5.69l.73,1.13h-.48l-.61-1Zm0-.35h.29a.69.69,0,0,0,.43-.11.38.38,0,0,0,.13-.32.34.34,0,0,0-.14-.31.74.74,0,0,0-.43-.1h-.28Z" transform="translate(0 -81.07)"/><path class="cls-3" d="M136,273.24a1.4,1.4,0,0,1-.31,1,1.13,1.13,0,0,1-.89.34,1.15,1.15,0,0,1-.89-.34,1.69,1.69,0,0,1,0-1.95,1.15,1.15,0,0,1,.9-.34,1.12,1.12,0,0,1,.88.34A1.41,1.41,0,0,1,136,273.24Zm-1.95,0a1.11,1.11,0,0,0,.19.71.64.64,0,0,0,.56.25.69.69,0,0,0,.57-.24,1.23,1.23,0,0,0,.19-.72,1.19,1.19,0,0,0-.19-.72.67.67,0,0,0-.56-.24.69.69,0,0,0-.57.24A1.13,1.13,0,0,0,134.05,273.24Z" transform="translate(0 -81.07)"/><path class="cls-3" d="M138.69,274.52h-.52l-1.26-2h0v.11c0,.22,0,.42,0,.6v1.33h-.38V272h.51l1.26,2h0a2.85,2.85,0,0,1,0-.3c0-.16,0-.3,0-.39V272h.39Z" transform="translate(0 -81.07)"/><path class="cls-3" d="M140.25,274.52h-.42v-2.2h-.76V272H141v.36h-.75Z" transform="translate(0 -81.07)"/><path class="cls-3" d="M141.18,273.73v-.35h.9v.35Z" transform="translate(0 -81.07)"/><path class="cls-3" d="M144,274.52h-1.45V272H144v.35h-1v.7h1v.35h-1v.8h1Z" transform="translate(0 -81.07)"/><path class="cls-3" d="M146.68,274.52h-.51l-1.26-2h0v.11c0,.22,0,.42,0,.6v1.33h-.38V272h.51l1.25,2h0s0-.13,0-.3,0-.3,0-.39V272h.38Z" transform="translate(0 -81.07)"/><path class="cls-3" d="M149.44,273.21a1.24,1.24,0,0,1-.35,1,1.37,1.37,0,0,1-1,.34h-.72V272h.79a1.29,1.29,0,0,1,.95.33A1.21,1.21,0,0,1,149.44,273.21Zm-.44,0c0-.61-.29-.92-.86-.92h-.36v1.86h.3A.83.83,0,0,0,149,273.23Z" transform="translate(0 -81.07)"/><path class="cls-3" d="M153,273.21a1.28,1.28,0,0,1-.35,1,1.41,1.41,0,0,1-1,.34h-.72V272h.8a1.32,1.32,0,0,1,.95.33A1.25,1.25,0,0,1,153,273.21Zm-.44,0c0-.61-.29-.92-.86-.92h-.37v1.86h.3A.83.83,0,0,0,152.57,273.23Z" transform="translate(0 -81.07)"/><path class="cls-3" d="M155,274.52h-1.45V272H155v.35h-1v.7h1v.35h-1v.8h1Z" transform="translate(0 -81.07)"/><path class="cls-3" d="M157,272h.43l-.89,2.56h-.44l-.9-2.56h.43l.54,1.59a2.57,2.57,0,0,1,.09.29q0,.18.06.27a2.6,2.6,0,0,1,.07-.31c0-.11.06-.2.08-.26Z" transform="translate(0 -81.07)"/><path class="cls-3" d="M159.24,274.52h-1.45V272h1.45v.35h-1v.7h1v.35h-1v.8h1Z" transform="translate(0 -81.07)"/><path class="cls-3" d="M159.8,274.52V272h.41v2.2h1.09v.36Z" transform="translate(0 -81.07)"/><path class="cls-3" d="M164,273.24a1.4,1.4,0,0,1-.31,1,1.12,1.12,0,0,1-.88.34,1.15,1.15,0,0,1-.9-.34,1.46,1.46,0,0,1-.31-1,1.37,1.37,0,0,1,.32-1,1.32,1.32,0,0,1,1.77,0A1.41,1.41,0,0,1,164,273.24Zm-1.95,0a1.11,1.11,0,0,0,.19.71.67.67,0,0,0,.57.25.68.68,0,0,0,.56-.24,1.16,1.16,0,0,0,.19-.72,1.13,1.13,0,0,0-.19-.72.67.67,0,0,0-.56-.24.69.69,0,0,0-.57.24A1.13,1.13,0,0,0,162.06,273.24Z" transform="translate(0 -81.07)"/><path class="cls-3" d="M166.26,272.73a.78.78,0,0,1-.26.62,1.19,1.19,0,0,1-.75.21H165v1h-.42V272h.74a1.13,1.13,0,0,1,.72.19A.73.73,0,0,1,166.26,272.73Zm-1.28.48h.23a.83.83,0,0,0,.47-.11.41.41,0,0,0,.15-.35.39.39,0,0,0-.14-.33.62.62,0,0,0-.42-.11H165Z" transform="translate(0 -81.07)"/><path class="cls-3" d="M168.22,274.52h-1.45V272h1.45v.35h-1v.7h1v.35h-1v.8h1Z" transform="translate(0 -81.07)"/><path class="cls-3" d="M169.19,273.5v1h-.42V272h.73a1.21,1.21,0,0,1,.73.18.67.67,0,0,1,.24.56.72.72,0,0,1-.5.69l.73,1.13h-.48l-.61-1Zm0-.35h.29a.69.69,0,0,0,.43-.11.38.38,0,0,0,.13-.32.34.34,0,0,0-.14-.31.74.74,0,0,0-.43-.1h-.28Z" transform="translate(0 -81.07)"/></g></g></svg>