<svg id="Camada_1" data-name="Camada 1" xmlns="http://www.w3.org/2000/svg" xmlns:xlink="http://www.w3.org/1999/xlink" viewBox="0 0 292.97 80.95"><defs><style>.cls-1{fill:#28f5be;}.cls-2{fill:#1e1e1e;}.cls-10,.cls-11,.cls-12,.cls-13,.cls-3,.cls-4,.cls-5,.cls-6,.cls-7,.cls-8,.cls-9{stroke:#fff;stroke-miterlimit:10;stroke-width:0.5px;}.cls-3{fill:url(#Gradiente_sem_nome_42);}.cls-4{fill:url(#Gradiente_sem_nome_42-2);}.cls-5{fill:url(#Gradiente_sem_nome_42-3);}.cls-6{fill:url(#Gradiente_sem_nome_42-4);}.cls-7{fill:url(#Gradiente_sem_nome_42-5);}.cls-8{fill:url(#Gradiente_sem_nome_42-6);}.cls-9{fill:url(#Gradiente_sem_nome_42-7);}.cls-10{fill:url(#Gradiente_sem_nome_42-8);}.cls-11{fill:url(#Gradiente_sem_nome_42-9);}.cls-12{fill:url(#Gradiente_sem_nome_42-10);}.cls-13{fill:url(#Gradiente_sem_nome_42-11);}</style><linearGradient id="Gradiente_sem_nome_42" x1="25.91" y1="215.63" x2="25.73" y2="166.7" gradientUnits="userSpaceOnUse"><stop offset="0.01" stop-color="#e6e6e6"/><stop offset="0.48" stop-color="#e6e6e6"/><stop offset="0.55" stop-color="#fbfbfb"/><stop offset="1" stop-color="#fbfbfb"/></linearGradient><linearGradient id="Gradiente_sem_nome_42-2" x1="52.23" y1="215.78" x2="52.96" y2="166.58" xlink:href="#Gradiente_sem_nome_42"/><linearGradient id="Gradiente_sem_nome_42-3" x1="79.16" y1="215.71" x2="79.55" y2="166.65" xlink:href="#Gradiente_sem_nome_42"/><linearGradient id="Gradiente_sem_nome_42-4" x1="98.94" y1="215.68" x2="99.83" y2="166.68" xlink:href="#Gradiente_sem_nome_42"/><linearGradient id="Gradiente_sem_nome_42-5" x1="120.38" y1="215.71" x2="120.85" y2="166.63" xlink:href="#Gradiente_sem_nome_42"/><linearGradient id="Gradiente_sem_nome_42-6" x1="148.14" y1="215.71" x2="148.53" y2="166.77" xlink:href="#Gradiente_sem_nome_42"/><linearGradient id="Gradiente_sem_nome_42-7" x1="178.78" y1="215.75" x2="179.35" y2="166.62" xlink:href="#Gradiente_sem_nome_42"/><linearGradient id="Gradiente_sem_nome_42-8" x1="198.64" y1="215.68" x2="199.53" y2="166.68" xlink:href="#Gradiente_sem_nome_42"/><linearGradient id="Gradiente_sem_nome_42-9" x1="220.69" y1="215.7" x2="220.33" y2="166.66" xlink:href="#Gradiente_sem_nome_42"/><linearGradient id="Gradiente_sem_nome_42-10" x1="247.88" y1="215.61" x2="247.03" y2="166.55" xlink:href="#Gradiente_sem_nome_42"/><linearGradient id="Gradiente_sem_nome_42-11" x1="274.76" y1="215.87" x2="273.58" y2="166.49" xlink:href="#Gradiente_sem_nome_42"/></defs><title>logo</title><path class="cls-1" d="M3.51,159.53h293v66.06l-15.76,14.88s-127.83-16.57-262.3,0L3.51,225.59Z" transform="translate(-3.51 -159.53)"/><path class="cls-2" d="M7.14,159.53H292.86v62.81l-15.37,14.15s-124.66-15.76-255.8,0L7.14,222.34Z" transform="translate(-3.51 -159.53)"/><path class="cls-3" d="M29.85,166.74l7.27,3.77v41.34l-7.27,3.77H14.54V166.74H29.85Zm-.7,31.41v-23L26.7,173.9H22.51v34.56H26.7l2.45-1.26Z" transform="translate(-3.51 -159.53)"/><path class="cls-4" d="M55.92,166.74h8v48.88h-8V196.33h2.44l-.14-.06-2.3-1.19-6.65-3.46v24h-8V166.74H55.92Zm0,20.48V173.9H49.27v9.87Z" transform="translate(-3.51 -159.53)"/><path class="cls-5" d="M90.65,166.74v48.88h-8V183.39h2.44L76,178.68v36.94h-8V166.74l14.61,7.6v-7.6Z" transform="translate(-3.51 -159.53)"/><path class="cls-6" d="M105.53,192.63l-2.09-1.07v24.06h-8l.07-7.48V188.79h2.37l-2.44-1.25v-.07l-2-1.06v-7.79l2,1V166.74h8v17l2.09,1.07Z" transform="translate(-3.51 -159.53)"/><path class="cls-7" d="M132.86,166.74v15.14h-8v-8h-6.64v9.93l8.11,4.21v7.79l-8.11-4.21v16.84h6.64v-9.68l8,4.09v12.75H110.28v-27h2.1l-2.1-1.07-2-1.07v-7.79l2,1V166.74h22.58Z" transform="translate(-3.51 -159.53)"/><path class="cls-8" d="M159.62,202.87v12.75H137.05V166.74h8v41.72h6.64v-9.68Z" transform="translate(-3.51 -159.53)"/><path class="cls-9" d="M190.35,166.74V182h-8V173.9h-6.64v9.87l14.61,7.6v24.25H167.78V196.46h8v12h6.64V196.33h2.44l-.13-.06-2.31-1.19-14.6-7.61V166.74h22.57Z" transform="translate(-3.51 -159.53)"/><path class="cls-10" d="M205.23,192.63l-2.09-1.07v24.06h-8l.07-7.48V188.79h2.37l-2.44-1.25v-.07l-2-1.06v-7.79l2,1V166.74h8v17l2.09,1.07Z" transform="translate(-3.51 -159.53)"/><path class="cls-11" d="M231.93,202.87v12.75H209.35V166.74h8v41.72H224v-9.68Z" transform="translate(-3.51 -159.53)"/><path class="cls-12" d="M258.69,166.74v43L256.18,211l-8.81,4.59-10-5.22-1.26-.62v-43h8v39.33l3.29,1.76,3.36-1.76V166.74Z" transform="translate(-3.51 -159.53)"/><path class="cls-13" d="M277.49,166.74h8v48.88h-8V196.33h2.45l-.14-.06-2.31-1.19-6.64-3.46v24h-8V166.74h14.61Zm0,20.48V173.9h-6.64v9.87Z" transform="translate(-3.51 -159.53)"/><path class="cls-1" d="M111.79,224.84H111V220h2.75v.67h-2v1.53h1.84v.67h-1.84Z" transform="translate(-3.51 -159.53)"/><path class="cls-1" d="M115.43,222.89v2h-.79V220H116a2.24,2.24,0,0,1,1.4.35,1.26,1.26,0,0,1,.46,1.07,1.34,1.34,0,0,1-1,1.3l1.38,2.16h-.91l-1.17-2Zm0-.66H116a1.27,1.27,0,0,0,.81-.21.78.78,0,0,0,.25-.62.66.66,0,0,0-.27-.59,1.51,1.51,0,0,0-.82-.18h-.53Z" transform="translate(-3.51 -159.53)"/><path class="cls-1" d="M123.34,222.39a2.66,2.66,0,0,1-.6,1.85,2.51,2.51,0,0,1-3.38,0,2.68,2.68,0,0,1-.6-1.87,2.62,2.62,0,0,1,.6-1.85,2.2,2.2,0,0,1,1.7-.65,2.13,2.13,0,0,1,1.68.66A2.64,2.64,0,0,1,123.34,222.39Zm-3.73,0a2.17,2.17,0,0,0,.37,1.37,1.49,1.49,0,0,0,2.15,0,2.77,2.77,0,0,0,0-2.73,1.46,1.46,0,0,0-2.15,0A2.12,2.12,0,0,0,119.61,222.39Z" transform="translate(-3.51 -159.53)"/><path class="cls-1" d="M128.45,224.84h-1l-2.4-3.89h0l0,.21c0,.42,0,.8,0,1.14v2.54h-.73V220h1l2.39,3.86h0s0-.23,0-.56,0-.57,0-.75V220h.73Z" transform="translate(-3.51 -159.53)"/><path class="cls-1" d="M131.42,224.84h-.8v-4.2h-1.43V220h3.67v.68h-1.44Z" transform="translate(-3.51 -159.53)"/><path class="cls-1" d="M133.2,223.34v-.67h1.72v.67Z" transform="translate(-3.51 -159.53)"/><path class="cls-1" d="M138.56,224.84H135.8V220h2.76v.67h-2V222h1.84v.67H136.6v1.53h2Z" transform="translate(-3.51 -159.53)"/><path class="cls-1" d="M143.68,224.84h-1L140.31,221h0l0,.21c0,.42,0,.8,0,1.14v2.54h-.72V220h1l2.39,3.86h0s0-.23,0-.56,0-.57,0-.75V220h.73Z" transform="translate(-3.51 -159.53)"/><path class="cls-1" d="M148.94,222.35a2.48,2.48,0,0,1-.67,1.85,2.72,2.72,0,0,1-1.93.64H145V220h1.51a2.51,2.51,0,0,1,1.81.62A2.36,2.36,0,0,1,148.94,222.35Zm-.84,0c0-1.17-.55-1.76-1.64-1.76h-.69v3.54h.57A1.56,1.56,0,0,0,148.1,222.38Z" transform="translate(-3.51 -159.53)"/><path class="cls-1" d="M155.73,222.35a2.44,2.44,0,0,1-.67,1.85,2.72,2.72,0,0,1-1.93.64h-1.37V220h1.51a2.51,2.51,0,0,1,1.81.62A2.36,2.36,0,0,1,155.73,222.35Zm-.84,0c0-1.17-.55-1.76-1.64-1.76h-.69v3.54h.57A1.56,1.56,0,0,0,154.89,222.38Z" transform="translate(-3.51 -159.53)"/><path class="cls-1" d="M159.54,224.84h-2.76V220h2.76v.67h-2V222h1.84v.67h-1.84v1.53h2Z" transform="translate(-3.51 -159.53)"/><path class="cls-1" d="M163.37,220h.83l-1.71,4.88h-.84L160,220h.82l1,3c.05.14.11.33.17.56a3.72,3.72,0,0,1,.11.51c0-.17.08-.37.14-.59l.14-.49Z" transform="translate(-3.51 -159.53)"/><path class="cls-1" d="M167.6,224.84h-2.76V220h2.76v.67h-2V222h1.84v.67h-1.84v1.53h2Z" transform="translate(-3.51 -159.53)"/><path class="cls-1" d="M168.66,224.84V220h.79v4.19h2.07v.69Z" transform="translate(-3.51 -159.53)"/><path class="cls-1" d="M176.69,222.39a2.7,2.7,0,0,1-.59,1.85,2.16,2.16,0,0,1-1.69.66,2.2,2.2,0,0,1-1.7-.65,2.72,2.72,0,0,1-.59-1.87,2.62,2.62,0,0,1,.6-1.85,2.19,2.19,0,0,1,1.7-.65,2.16,2.16,0,0,1,1.68.66A2.69,2.69,0,0,1,176.69,222.39Zm-3.72,0a2.24,2.24,0,0,0,.36,1.37,1.29,1.29,0,0,0,1.08.46,1.27,1.27,0,0,0,1.07-.46,2.73,2.73,0,0,0,0-2.73,1.28,1.28,0,0,0-1.07-.47,1.32,1.32,0,0,0-1.09.47A2.18,2.18,0,0,0,173,222.39Z" transform="translate(-3.51 -159.53)"/><path class="cls-1" d="M181,221.43a1.43,1.43,0,0,1-.5,1.17,2.2,2.2,0,0,1-1.42.41h-.51v1.83h-.8V220h1.41a2.13,2.13,0,0,1,1.37.37A1.35,1.35,0,0,1,181,221.43Zm-2.43.91H179a1.53,1.53,0,0,0,.9-.21.8.8,0,0,0,.29-.67.77.77,0,0,0-.26-.63,1.25,1.25,0,0,0-.8-.21h-.55Z" transform="translate(-3.51 -159.53)"/><path class="cls-1" d="M184.7,224.84h-2.76V220h2.76v.67h-2V222h1.84v.67h-1.84v1.53h2Z" transform="translate(-3.51 -159.53)"/><path class="cls-1" d="M186.56,222.89v2h-.8V220h1.38a2.26,2.26,0,0,1,1.4.35,1.28,1.28,0,0,1,.45,1.07,1.34,1.34,0,0,1-1,1.3l1.38,2.16h-.91l-1.16-2Zm0-.66h.55a1.27,1.27,0,0,0,.81-.21.75.75,0,0,0,.25-.62.66.66,0,0,0-.27-.59,1.47,1.47,0,0,0-.81-.18h-.53Z" transform="translate(-3.51 -159.53)"/></svg>