<svg id="Camada_1" data-name="Camada 1" xmlns="http://www.w3.org/2000/svg" viewBox="0 0 898.74 216.21"><defs><style>.cls-1{fill:#232323;}</style></defs><title>logo-menu</title><path class="cls-1" d="M68.16,1.44l47.61,148.39L163.23,1.44H230.9V214.72H179.34v-49.8l5-102L132.76,214.72h-34L47.07,62.82l5,102.1v49.8H.63V1.44Z" transform="translate(-0.63 -1.44)"/><path class="cls-1" d="M425.84,124.19H345v51h95.5v39.55H293.57V1.44H440.79v39.7H345v45h80.85Z" transform="translate(-0.63 -1.44)"/><path class="cls-1" d="M669.57,214.72H618.44L542.86,82V214.72H491.44V1.44h51.42L618.3,134.15V1.44h51.27Z" transform="translate(-0.63 -1.44)"/><path class="cls-1" d="M899.37,1.44V141q0,23.73-10.11,41.09a65.45,65.45,0,0,1-29,26.44q-18.9,9.09-44.68,9.08-39,0-61.38-20.21t-22.85-55.38V1.44h51.71V143.09q.88,35,32.52,35,16,0,24.17-8.79t8.2-28.56V1.44Z" transform="translate(-0.63 -1.44)"/></svg>