<svg id="Camada_1" data-name="Camada 1" xmlns="http://www.w3.org/2000/svg" viewBox="0 0 100 56.51"><defs><style>.cls-1{fill:#28f5be;}.cls-2{fill:#f7f7f7;}.cls-3{fill:#fff;}.cls-4{fill:#e9e9e9;}.cls-5{fill:#f3f3f3;}.cls-6{fill:#1e1e1e;}.cls-15,.cls-7,.cls-8{isolation:isolate;}.cls-8{font-size:22.71px;fill:#8c8c8c;font-family:AvenirNextLTPro-Regular, Avenir Next LT Pro;}.cls-9{letter-spacing:-0.02em;}.cls-10{fill:#232323;}.cls-11{fill:#2a2a2a;}.cls-12{fill:#fe4564;}.cls-13{fill:#ecd014;}.cls-14{fill:#00e3ab;}.cls-15{font-size:17.03px;fill:#182b29;font-family:OpenSans-SemiBold, Open Sans;font-weight:600;letter-spacing:0.1em;}.cls-16{fill:none;stroke:#28f5be;stroke-linecap:round;stroke-linejoin:round;}</style></defs><title>logo</title><path class="cls-1" d="M189.49,171.77V123.59a1.83,1.83,0,0,0-1.81-1.85H112.32a1.83,1.83,0,0,0-1.81,1.85v48.18H100v4.64l5.8,1.85H194l6-1.85v-4.64Z" transform="translate(-100 -121.74)"/><path class="cls-2" d="M187.38,125.48v49H112.62v-49a1.72,1.72,0,0,1,1.72-1.71h71.32A1.72,1.72,0,0,1,187.38,125.48Z" transform="translate(-100 -121.74)"/><rect class="cls-3" x="2.68" y="51.4" width="94.65" height="1.37"/><polygon class="cls-4" points="91.63 54.49 8.16 54.49 2.68 52.78 97.32 52.78 91.63 54.49"/><path class="cls-5" d="M156.13,173.15a.69.69,0,0,1-.68.68H144.11a.69.69,0,0,1-.69-.68Z" transform="translate(-100 -121.74)"/><rect class="cls-6" x="15.06" y="5.7" width="70.2" height="44.05" rx="0.69"/><g id="Grupo_29" data-name="Grupo 29"><g id="Grupo_27" data-name="Grupo 27"><g id="E" class="cls-7"><text class="cls-8" transform="translate(37.64 12.3) rotate(180)">E</text></g><g id="rror" class="cls-7"><text class="cls-8" transform="translate(37.64 28.42)">r<tspan class="cls-9" x="8.18" y="0">r</tspan><tspan x="15.94" y="0">or</tspan></text></g></g><g id="Grupo_26" data-name="Grupo 26"><g id="Grupo_22" data-name="Grupo 22"><path id="Ret창ngulo_86" data-name="Ret창ngulo 86" class="cls-10" d="M140.48,148.12H173v20.33a.22.22,0,0,1-.23.22h-32a.23.23,0,0,1-.23-.22V148.12Z" transform="translate(-100 -121.74)"/><path id="Ret창ngulo_87" data-name="Ret창ngulo 87" class="cls-11" d="M140.71,146.76h32a.23.23,0,0,1,.23.23v1.25H140.48V147A.23.23,0,0,1,140.71,146.76Z" transform="translate(-100 -121.74)"/><circle id="Elipse_6" data-name="Elipse 6" class="cls-12" cx="41.34" cy="25.75" r="0.28"/><circle id="Elipse_7" data-name="Elipse 7" class="cls-13" cx="42.13" cy="25.75" r="0.28"/><circle id="Elipse_8" data-name="Elipse 8" class="cls-14" cx="42.93" cy="25.75" r="0.28"/></g><g id="_404" data-name=" 404" class="cls-7"><text class="cls-15" transform="translate(40.48 43.18)">404</text></g><g id="Grupo_23" data-name="Grupo 23"><path id="Caminho_38" data-name="Caminho 38" class="cls-16" d="M163.36,154.88l-2.21-2.24" transform="translate(-100 -121.74)"/><path id="Caminho_39" data-name="Caminho 39" class="cls-16" d="M163.36,152.64l-2.24,2.24" transform="translate(-100 -121.74)"/></g><g id="Grupo_24" data-name="Grupo 24"><path id="Caminho_38-2" data-name="Caminho 38-2" class="cls-16" d="M152.35,154.88l-2.21-2.24" transform="translate(-100 -121.74)"/><path id="Caminho_39-2" data-name="Caminho 39-2" class="cls-16" d="M152.35,152.64l-2.24,2.24" transform="translate(-100 -121.74)"/></g><g id="Grupo_25" data-name="Grupo 25"><path id="Caminho_40" data-name="Caminho 40" class="cls-16" d="M150,160.84c.67,0,.67.68,1.33.68s.66-.68,1.33-.68.66.68,1.32.68.67-.68,1.33-.68.67.68,1.33.68.66-.68,1.33-.68.66.68,1.33.68.66-.68,1.32-.68.67.68,1.33.68.67-.68,1.33-.68" transform="translate(-100 -121.74)"/></g></g></g><path class="cls-11" d="M185.26,128.13v1.73h-70.2v-1.73a.69.69,0,0,1,.69-.69h68.82A.69.69,0,0,1,185.26,128.13Z" transform="translate(-100 -121.74)"/><circle id="Elipse_6-2" data-name="Elipse 6" class="cls-12" cx="16.71" cy="6.91" r="0.36"/><circle id="Elipse_7-2" data-name="Elipse 7" class="cls-13" cx="17.72" cy="6.91" r="0.36"/><circle id="Elipse_8-2" data-name="Elipse 8" class="cls-14" cx="18.73" cy="6.91" r="0.36"/></svg>