<?xml version="1.0" encoding="utf-8"?>
<!-- Generator: Adobe Illustrator 24.0.0, SVG Export Plug-In . SVG Version: 6.00 Build 0)  -->
<svg version="1.1" id="Camada_1" xmlns="http://www.w3.org/2000/svg" xmlns:xlink="http://www.w3.org/1999/xlink" x="0px" y="0px"
	 viewBox="0 0 10.6 149.7" style="enable-background:new 0 0 10.6 149.7;" xml:space="preserve">
<style type="text/css">
	.st0{fill:#28F5BE;}
</style>
<title>scroll</title>
<rect id="Retângulo_80" x="4.3" y="106.9" class="st0" width="2" height="40"/>
<g>
	<path class="st0" d="M7.1,97c-0.1,0-0.2,0-0.3,0.1s-0.2,0.1-0.3,0.3s-0.2,0.3-0.2,0.5S6.1,98.3,6,98.6c-0.1,0.4-0.2,0.7-0.3,1
		s-0.2,0.6-0.4,0.8s-0.3,0.4-0.5,0.5S4.4,101,4.2,101c-0.3,0-0.5-0.1-0.7-0.2s-0.4-0.3-0.6-0.5s-0.3-0.5-0.4-0.8s-0.1-0.6-0.1-1
		c0-0.4,0.1-0.7,0.2-1.1s0.2-0.6,0.4-0.8s0.4-0.4,0.6-0.5S4,96,4.3,96v1.1c-0.1,0-0.3,0-0.4,0.1s-0.2,0.2-0.3,0.3s-0.2,0.3-0.2,0.5
		s-0.1,0.4-0.1,0.6c0,0.2,0,0.4,0.1,0.6s0.1,0.3,0.2,0.4s0.2,0.2,0.3,0.3s0.2,0.1,0.4,0.1c0.1,0,0.2,0,0.3-0.1s0.2-0.1,0.3-0.2
		s0.1-0.3,0.2-0.5s0.1-0.4,0.2-0.7c0.1-0.4,0.2-0.7,0.3-1s0.2-0.6,0.4-0.8s0.3-0.4,0.5-0.5s0.4-0.2,0.7-0.2c0.3,0,0.5,0.1,0.8,0.2
		c0.2,0.1,0.4,0.3,0.6,0.5s0.3,0.5,0.4,0.8s0.1,0.7,0.1,1c0,0.4-0.1,0.8-0.2,1.1s-0.3,0.6-0.5,0.9s-0.4,0.4-0.7,0.5
		s-0.5,0.2-0.8,0.2v-1.1c0.2,0,0.4-0.1,0.6-0.2s0.3-0.2,0.4-0.4s0.2-0.3,0.2-0.5S8,98.7,8,98.5c0-0.5-0.1-0.8-0.3-1.1S7.4,97,7.1,97
		z"/>
	<path class="st0" d="M8,88.9c0-0.2,0-0.4-0.1-0.6S7.8,88,7.6,87.9s-0.2-0.3-0.4-0.3s-0.3-0.1-0.5-0.1v-1c0.3,0,0.5,0.1,0.8,0.2
		s0.5,0.3,0.7,0.6s0.3,0.5,0.5,0.8s0.2,0.6,0.2,1c0,0.5-0.1,0.9-0.3,1.3s-0.4,0.7-0.7,0.9c-0.3,0.2-0.6,0.4-1,0.5s-0.8,0.2-1.2,0.2
		H5.5c-0.4,0-0.8-0.1-1.2-0.2s-0.7-0.3-1-0.5s-0.5-0.5-0.7-0.9s-0.3-0.8-0.3-1.3c0-0.4,0.1-0.7,0.2-1s0.3-0.6,0.5-0.8
		s0.4-0.4,0.7-0.5s0.6-0.2,0.9-0.2v1c-0.2,0-0.4,0-0.5,0.1s-0.3,0.2-0.4,0.3s-0.2,0.3-0.3,0.5s-0.1,0.4-0.1,0.6
		c0,0.3,0.1,0.6,0.2,0.8s0.3,0.4,0.5,0.6s0.5,0.2,0.7,0.3s0.5,0.1,0.8,0.1h0.2c0.3,0,0.6,0,0.8-0.1s0.5-0.2,0.7-0.3s0.4-0.3,0.5-0.6
		S8,89.3,8,88.9z"/>
	<path class="st0" d="M2.3,77.9c0-0.1,0-0.2,0-0.3s0-0.2,0-0.3s0-0.2,0-0.3s0-0.2,0.1-0.2l1.1,0.1c0,0.2-0.1,0.4-0.1,0.6
		s0,0.4,0,0.6c0,0.5,0.1,0.9,0.3,1.2s0.6,0.5,1,0.7h4.1v1.1H2.4v-1l1-0.1c-0.3-0.3-0.6-0.6-0.8-0.9S2.3,78.3,2.3,77.9z"/>
	<path class="st0" d="M5.5,72.7c-0.5,0-0.9-0.1-1.3-0.2s-0.7-0.3-1-0.6s-0.5-0.5-0.7-0.9s-0.2-0.8-0.2-1.2c0-0.4,0.1-0.9,0.2-1.2
		s0.4-0.7,0.7-0.9s0.6-0.4,1-0.6S5.1,67,5.5,67h0.1c0.5,0,0.9,0.1,1.3,0.2s0.7,0.3,1,0.6c0.3,0.2,0.5,0.5,0.7,0.9s0.2,0.8,0.2,1.2
		c0,0.4-0.1,0.9-0.2,1.2S8.2,71.7,8,72c-0.3,0.2-0.6,0.4-1,0.6s-0.8,0.2-1.3,0.2H5.5z M5.7,71.6c0.3,0,0.6,0,0.9-0.1
		s0.5-0.2,0.7-0.3s0.4-0.3,0.5-0.6S8,70.1,8,69.8c0-0.3-0.1-0.6-0.2-0.8s-0.3-0.4-0.5-0.6s-0.5-0.3-0.7-0.3S6,68.1,5.7,68.1H5.5
		c-0.3,0-0.6,0-0.9,0.1s-0.5,0.2-0.7,0.3s-0.4,0.3-0.5,0.6s-0.2,0.5-0.2,0.8s0.1,0.6,0.2,0.8s0.3,0.4,0.5,0.6s0.5,0.3,0.7,0.3
		s0.6,0.1,0.9,0.1H5.7z"/>
	<path class="st0" d="M-0.2,62.7v-3.2h8.1v-2.1h0.9v5.3H7.8v-2.2H0.7v2.2H-0.2z"/>
	<path class="st0" d="M-0.2,53.1v-3.2h8.1v-2.1h0.9v5.3H7.8v-2.2H0.7v2.2H-0.2z"/>
	<path class="st0" d="M5.5,34.2c-0.5,0-0.9-0.1-1.3-0.2s-0.7-0.3-1-0.5s-0.5-0.5-0.7-0.8s-0.2-0.7-0.2-1c0-0.4,0.1-0.7,0.2-1
		S2.8,30.2,3,30h-3.3v-1.1h9v1l-0.7,0c0.3,0.2,0.5,0.5,0.6,0.8s0.2,0.6,0.2,1c0,0.4-0.1,0.7-0.2,1S8.2,33.3,8,33.5
		c-0.3,0.2-0.6,0.4-1,0.5s-0.8,0.2-1.3,0.2H5.5z M5.7,33.1c0.3,0,0.6,0,0.9-0.1s0.5-0.2,0.7-0.3s0.4-0.3,0.5-0.5S8,31.7,8,31.4
		c0-0.2,0-0.3-0.1-0.5s-0.1-0.3-0.2-0.4s-0.2-0.2-0.3-0.3S7.2,30,7.1,30H4.1c-0.3,0.1-0.5,0.3-0.6,0.6s-0.2,0.5-0.2,0.9
		c0,0.3,0.1,0.6,0.2,0.8s0.3,0.4,0.5,0.5S4.4,33,4.7,33s0.6,0.1,0.9,0.1H5.7z"/>
	<path class="st0" d="M5.5,24.7c-0.5,0-0.9-0.1-1.3-0.2s-0.7-0.3-1-0.6s-0.5-0.5-0.7-0.9s-0.2-0.8-0.2-1.2c0-0.4,0.1-0.9,0.2-1.2
		s0.4-0.7,0.7-0.9s0.6-0.4,1-0.6S5.1,19,5.5,19h0.1c0.5,0,0.9,0.1,1.3,0.2s0.7,0.3,1,0.6c0.3,0.2,0.5,0.5,0.7,0.9s0.2,0.8,0.2,1.2
		c0,0.4-0.1,0.9-0.2,1.2S8.2,23.7,8,24c-0.3,0.2-0.6,0.4-1,0.6s-0.8,0.2-1.3,0.2H5.5z M5.7,23.6c0.3,0,0.6,0,0.9-0.1
		s0.5-0.2,0.7-0.3s0.4-0.3,0.5-0.6S8,22.1,8,21.8c0-0.3-0.1-0.6-0.2-0.8s-0.3-0.4-0.5-0.6s-0.5-0.3-0.7-0.3S6,20,5.7,20H5.5
		c-0.3,0-0.6,0-0.9,0.1s-0.5,0.2-0.7,0.3s-0.4,0.3-0.5,0.6s-0.2,0.5-0.2,0.8s0.1,0.6,0.2,0.8s0.3,0.4,0.5,0.6s0.5,0.3,0.7,0.3
		s0.6,0.1,0.9,0.1H5.7z"/>
	<path class="st0" d="M6.5,13.9l0.9-0.1l-0.9-0.2l-4-1v-0.7l4-1l1-0.2l-1-0.2l-4-0.7v-1l6.3,1.3v0.9l-3.9,1l-1,0.2l1,0.2l3.9,1v0.9
		l-6.3,1.3v-1L6.5,13.9z"/>
	<path class="st0" d="M2.4,4.2l0.9-0.1C3,3.9,2.8,3.7,2.6,3.3S2.3,2.6,2.3,2.2c0-0.3,0-0.6,0.1-0.9s0.2-0.5,0.4-0.7s0.5-0.3,0.8-0.4
		S4.3,0,4.7,0h4v1.1h-4c-0.3,0-0.5,0-0.7,0.1S3.7,1.3,3.6,1.5S3.4,1.7,3.3,1.9S3.2,2.3,3.2,2.5c0,0.4,0.1,0.7,0.3,1S3.9,4,4.2,4.1
		h4.5v1.1H2.4V4.2z"/>
</g>
</svg>
