<svg id="Camada_1" data-name="Camada 1" xmlns="http://www.w3.org/2000/svg" viewBox="0 0 10.64 149.7"><defs><style>.cls-1{isolation:isolate;}.cls-2{fill:#28f5be;}</style></defs><title>scroll</title><g class="cls-1"><path class="cls-2" d="M12.56,57.79a1,1,0,0,0-.41.09.92.92,0,0,0-.33.3,2.25,2.25,0,0,0-.27.56,5.36,5.36,0,0,0-.23.87A8.44,8.44,0,0,1,11,60.77a3.52,3.52,0,0,1-.44.89,1.84,1.84,0,0,1-.6.58,1.52,1.52,0,0,1-.8.21,1.81,1.81,0,0,1-.85-.21,2.15,2.15,0,0,1-.68-.6,3,3,0,0,1-.47-.91A3.89,3.89,0,0,1,7,59.56a4,4,0,0,1,.18-1.23,2.94,2.94,0,0,1,.49-.93,2.33,2.33,0,0,1,.74-.59,2,2,0,0,1,.9-.21v1.27a1,1,0,0,0-.47.12,1.3,1.3,0,0,0-.4.34,1.69,1.69,0,0,0-.29.53,2.19,2.19,0,0,0-.11.7,2.5,2.5,0,0,0,.09.71,1.72,1.72,0,0,0,.24.51,1,1,0,0,0,.35.3.94.94,0,0,0,.8,0,.79.79,0,0,0,.3-.28,2.28,2.28,0,0,0,.25-.54c.07-.23.14-.51.21-.86a11.7,11.7,0,0,1,.33-1.22,3.86,3.86,0,0,1,.45-.91,1.86,1.86,0,0,1,.62-.57,1.6,1.6,0,0,1,.8-.19,1.82,1.82,0,0,1,.9.22,2,2,0,0,1,.69.62,2.88,2.88,0,0,1,.44,1,4.62,4.62,0,0,1,0,2.55,3.32,3.32,0,0,1-.53,1,2.37,2.37,0,0,1-.77.62,2,2,0,0,1-.91.22V61.44a1.28,1.28,0,0,0,.65-.21,1.42,1.42,0,0,0,.43-.45,2,2,0,0,0,.24-.6,3.66,3.66,0,0,0,.06-.65,2.34,2.34,0,0,0-.29-1.27A.93.93,0,0,0,12.56,57.79Z" transform="translate(-4.02 -0.31)"/><path class="cls-2" d="M13.63,48.35a2.11,2.11,0,0,0-.1-.66,2.14,2.14,0,0,0-.31-.58,1.64,1.64,0,0,0-.46-.41,1.22,1.22,0,0,0-.57-.16V45.35a2,2,0,0,1,.94.25,2.79,2.79,0,0,1,.79.67,3.73,3.73,0,0,1,.54,1,3.26,3.26,0,0,1,.2,1.12,3.32,3.32,0,0,1-.3,1.47,3,3,0,0,1-.81,1,3.63,3.63,0,0,1-1.18.64,4.61,4.61,0,0,1-1.4.21h-.29a4.65,4.65,0,0,1-1.4-.21,3.63,3.63,0,0,1-1.18-.64,3,3,0,0,1-.81-1,3.65,3.65,0,0,1-.09-2.67,2.9,2.9,0,0,1,.57-.95,2.49,2.49,0,0,1,1.9-.85v1.19a1.71,1.71,0,0,0-.63.15,1.62,1.62,0,0,0-.52.38,1.68,1.68,0,0,0-.36.57,2.09,2.09,0,0,0,.11,1.7,1.9,1.9,0,0,0,.61.65,2.67,2.67,0,0,0,.85.35,4.4,4.4,0,0,0,.95.11H11a4.49,4.49,0,0,0,1-.11,2.58,2.58,0,0,0,.85-.35,1.81,1.81,0,0,0,.62-.64A1.92,1.92,0,0,0,13.63,48.35Z" transform="translate(-4.02 -0.31)"/><path class="cls-2" d="M7,35.46c0-.12,0-.24,0-.37s0-.25,0-.37a3.06,3.06,0,0,1,0-.32,1.67,1.67,0,0,1,.08-.24l1.24.17a4.89,4.89,0,0,0-.12.7,5.12,5.12,0,0,0,0,.69,2.34,2.34,0,0,0,.4,1.44A2.31,2.31,0,0,0,9.78,38h4.74v1.28H7.13V38L8.3,38a3.53,3.53,0,0,1-1-1.08A3,3,0,0,1,7,35.46Z" transform="translate(-4.02 -0.31)"/><path class="cls-2" d="M10.76,29.46a4.75,4.75,0,0,1-1.49-.23,3.54,3.54,0,0,1-1.19-.67,3.13,3.13,0,0,1-.8-1.06A3.3,3.3,0,0,1,7,26.1a3.38,3.38,0,0,1,.29-1.41,3.13,3.13,0,0,1,.8-1.06A3.54,3.54,0,0,1,9.27,23a4.75,4.75,0,0,1,1.49-.23h.15a4.73,4.73,0,0,1,1.48.23,3.64,3.64,0,0,1,1.19.67,3,3,0,0,1,.79,1.06,3.3,3.3,0,0,1,.29,1.4,3.38,3.38,0,0,1-.29,1.41,3,3,0,0,1-.79,1.06,3.64,3.64,0,0,1-1.19.67,4.73,4.73,0,0,1-1.48.23Zm.15-1.27a4,4,0,0,0,1-.13,2.47,2.47,0,0,0,.87-.39,1.81,1.81,0,0,0,.81-1.58,1.77,1.77,0,0,0-.81-1.57,2.47,2.47,0,0,0-.87-.39,4,4,0,0,0-1-.13h-.15a4,4,0,0,0-1,.13,2.67,2.67,0,0,0-.87.4,2,2,0,0,0-.6.65,2,2,0,0,0,0,1.84,2,2,0,0,0,.6.65,2.47,2.47,0,0,0,.87.39,4,4,0,0,0,1,.13Z" transform="translate(-4.02 -0.31)"/><path class="cls-2" d="M4,17.7V13.92h9.41V11.51h1.09V17.7H13.43V15.19H5.12V17.7Z" transform="translate(-4.02 -0.31)"/><path class="cls-2" d="M4,6.5V2.72h9.41V.31h1.09V6.5H13.43V4H5.12V6.5Z" transform="translate(-4.02 -0.31)"/></g><rect id="Retângulo_80" data-name="Retângulo 80" class="cls-2" x="5.5" y="69.7" width="2" height="80"/></svg>