<?xml version="1.0" encoding="utf-8"?>
<!-- Generator: Adobe Illustrator 24.0.0, SVG Export Plug-In . SVG Version: 6.00 Build 0)  -->
<svg version="1.1" id="Camada_1" xmlns="http://www.w3.org/2000/svg" xmlns:xlink="http://www.w3.org/1999/xlink" x="0px" y="0px"
	 viewBox="0 0 10.6 176.4" style="enable-background:new 0 0 10.6 176.4;" xml:space="preserve">
<style type="text/css">
	.st0{fill:#28F5BE;}
</style>
<title>scroll</title>
<rect id="Retângulo_80" x="4.3" y="149.9" class="st0" width="2" height="27.2"/>
<g>
	<path class="st0" d="M7.1,137.5c-0.1,0-0.2,0-0.3,0.1c-0.1,0.1-0.2,0.1-0.3,0.3c-0.1,0.2-0.2,0.3-0.2,0.5s-0.2,0.4-0.3,0.7
		c-0.1,0.4-0.2,0.7-0.3,1s-0.2,0.6-0.4,0.8c-0.2,0.2-0.3,0.4-0.5,0.5c-0.2,0.1-0.4,0.1-0.6,0.1c-0.3,0-0.5-0.1-0.7-0.2
		c-0.2-0.1-0.4-0.3-0.6-0.5s-0.3-0.5-0.4-0.8s-0.1-0.6-0.1-1c0-0.4,0.1-0.7,0.2-1.1c0.1-0.4,0.2-0.6,0.4-0.8
		c0.2-0.2,0.4-0.4,0.6-0.5c0.2-0.1,0.4-0.1,0.7-0.1v1.1c-0.1,0-0.3,0-0.4,0.1c-0.1,0.1-0.2,0.2-0.3,0.3s-0.2,0.3-0.2,0.5
		s-0.1,0.4-0.1,0.6s0,0.4,0.1,0.6s0.1,0.3,0.2,0.4c0.1,0.1,0.2,0.2,0.3,0.3s0.2,0.1,0.4,0.1c0.1,0,0.2,0,0.3-0.1
		c0.1-0.1,0.2-0.1,0.3-0.2c0.1-0.1,0.1-0.3,0.2-0.5s0.1-0.4,0.2-0.7c0.1-0.4,0.2-0.7,0.3-1s0.2-0.6,0.4-0.8c0.2-0.2,0.3-0.4,0.5-0.5
		c0.2-0.1,0.4-0.2,0.7-0.2c0.3,0,0.5,0.1,0.8,0.2c0.2,0.1,0.4,0.3,0.6,0.5s0.3,0.5,0.4,0.8s0.1,0.7,0.1,1c0,0.4-0.1,0.8-0.2,1.1
		c-0.1,0.3-0.3,0.6-0.5,0.9s-0.4,0.4-0.7,0.5c-0.3,0.1-0.5,0.2-0.8,0.2v-1.1c0.2,0,0.4-0.1,0.6-0.2c0.2-0.1,0.3-0.2,0.4-0.4
		c0.1-0.2,0.2-0.3,0.2-0.5S8,139.2,8,139c0-0.5-0.1-0.8-0.3-1.1C7.5,137.6,7.4,137.5,7.1,137.5z"/>
	<path class="st0" d="M8,124.4c0-0.2,0-0.4-0.1-0.6s-0.1-0.3-0.3-0.4c-0.2-0.1-0.2-0.3-0.4-0.3S6.9,123,6.7,123v-1
		c0.3,0,0.5,0.1,0.8,0.2c0.3,0.1,0.5,0.3,0.7,0.6c0.2,0.3,0.3,0.5,0.5,0.8s0.2,0.6,0.2,1c0,0.5-0.1,0.9-0.3,1.3
		c-0.2,0.4-0.4,0.7-0.7,0.9c-0.3,0.2-0.6,0.4-1,0.5c-0.4,0.1-0.8,0.2-1.2,0.2H5.5c-0.4,0-0.8-0.1-1.2-0.2c-0.4-0.1-0.7-0.3-1-0.5
		s-0.5-0.5-0.7-0.9c-0.2-0.4-0.3-0.8-0.3-1.3c0-0.4,0.1-0.7,0.2-1s0.3-0.6,0.5-0.8c0.2-0.2,0.4-0.4,0.7-0.5c0.3-0.1,0.6-0.2,0.9-0.2
		v1c-0.2,0-0.4,0-0.5,0.1c-0.1,0.1-0.3,0.2-0.4,0.3s-0.2,0.3-0.3,0.5s-0.1,0.4-0.1,0.6c0,0.3,0.1,0.6,0.2,0.8
		c0.1,0.2,0.3,0.4,0.5,0.6c0.2,0.2,0.5,0.2,0.7,0.3s0.5,0.1,0.8,0.1h0.2c0.3,0,0.6,0,0.8-0.1c0.2-0.1,0.5-0.2,0.7-0.3
		s0.4-0.3,0.5-0.6C7.8,125.1,8,124.8,8,124.4z"/>
	<path class="st0" d="M2.3,108.4c0-0.1,0-0.2,0-0.3s0-0.2,0-0.3s0-0.2,0-0.3s0-0.2,0.1-0.2l1.1,0.1c0,0.2-0.1,0.4-0.1,0.6
		s0,0.4,0,0.6c0,0.5,0.1,0.9,0.3,1.2c0.2,0.3,0.6,0.5,1,0.7h4.1v1.1H2.4v-1l1-0.1c-0.3-0.3-0.6-0.6-0.8-0.9S2.3,108.8,2.3,108.4z"/>
	<path class="st0" d="M5.5,98.2c-0.5,0-0.9-0.1-1.3-0.2c-0.4-0.1-0.7-0.3-1-0.6c-0.3-0.3-0.5-0.5-0.7-0.9c-0.2-0.4-0.2-0.8-0.2-1.2
		c0-0.4,0.1-0.9,0.2-1.2c0.1-0.3,0.4-0.7,0.7-0.9c0.3-0.2,0.6-0.4,1-0.6s0.9-0.1,1.3-0.1h0.1c0.5,0,0.9,0.1,1.3,0.2
		c0.4,0.1,0.7,0.3,1,0.6c0.3,0.2,0.5,0.5,0.7,0.9c0.2,0.4,0.2,0.8,0.2,1.2s-0.1,0.9-0.2,1.2c-0.1,0.3-0.4,0.6-0.6,0.9
		c-0.3,0.2-0.6,0.4-1,0.6s-0.8,0.2-1.3,0.2L5.5,98.2L5.5,98.2z M5.7,97.1c0.3,0,0.6,0,0.9-0.1c0.3-0.1,0.5-0.2,0.7-0.3
		s0.4-0.3,0.5-0.6C7.9,95.8,8,95.6,8,95.3c0-0.3-0.1-0.6-0.2-0.8c-0.1-0.2-0.3-0.4-0.5-0.6s-0.5-0.3-0.7-0.3s-0.6,0-0.9,0H5.5
		c-0.3,0-0.6,0-0.9,0.1c-0.3,0.1-0.5,0.2-0.7,0.3s-0.4,0.3-0.5,0.6c-0.1,0.3-0.2,0.5-0.2,0.8s0.1,0.6,0.2,0.8
		c0.1,0.2,0.3,0.4,0.5,0.6s0.5,0.3,0.7,0.3s0.6,0.1,0.9,0.1h0.2V97.1z"/>
	<path class="st0" d="M-0.2,83.2V80h8.1v-2.1h0.9v5.3h-1V81H0.7v2.2H-0.2z"/>
	<path class="st0" d="M-0.2,68.6v-3.2h8.1v-2.1h0.9v5.3h-1v-2.2H0.7v2.2H-0.2z"/>
	<path class="st0" d="M5.5,49.7c-0.5,0-0.9-0.1-1.3-0.2s-0.7-0.3-1-0.5s-0.5-0.5-0.7-0.8s-0.2-0.7-0.2-1c0-0.4,0.1-0.7,0.2-1
		s0.3-0.5,0.5-0.7h-3.3v-1.1h9v1H8c0.3,0.2,0.5,0.5,0.6,0.8c0.1,0.3,0.2,0.6,0.2,1c0,0.4-0.1,0.7-0.2,1S8.2,48.8,8,49
		c-0.3,0.2-0.6,0.4-1,0.5s-0.8,0.2-1.3,0.2H5.5z M5.7,48.6c0.3,0,0.6,0,0.9-0.1s0.5-0.2,0.7-0.3s0.4-0.3,0.5-0.5S8,47.2,8,46.9
		c0-0.2,0-0.3-0.1-0.5c-0.1-0.2-0.1-0.3-0.2-0.4s-0.2-0.2-0.3-0.3s-0.2-0.2-0.3-0.2h-3c-0.3,0.1-0.5,0.3-0.6,0.6
		c-0.1,0.3-0.2,0.5-0.2,0.9c0,0.3,0.1,0.6,0.2,0.8s0.3,0.4,0.5,0.5c0.2,0.1,0.4,0.2,0.7,0.2S5.3,48.6,5.7,48.6L5.7,48.6z"/>
	<path class="st0" d="M5.5,35.2c-0.5,0-0.9-0.1-1.3-0.2s-0.7-0.3-1-0.6c-0.3-0.3-0.5-0.5-0.7-0.9s-0.2-0.8-0.2-1.2
		c0-0.4,0.1-0.9,0.2-1.2s0.4-0.7,0.7-0.9s0.6-0.4,1-0.6s0.9-0.1,1.3-0.1h0.1c0.5,0,0.9,0.1,1.3,0.2s0.7,0.3,1,0.6
		c0.3,0.2,0.5,0.5,0.7,0.9s0.2,0.8,0.2,1.2c0,0.4-0.1,0.9-0.2,1.2S8.2,34.2,8,34.5c-0.3,0.2-0.6,0.4-1,0.6c-0.4,0.2-0.8,0.2-1.3,0.2
		L5.5,35.2L5.5,35.2z M5.7,34.1c0.3,0,0.6,0,0.9-0.1s0.5-0.2,0.7-0.3s0.4-0.3,0.5-0.6C7.9,32.8,8,32.6,8,32.3c0-0.3-0.1-0.6-0.2-0.8
		s-0.3-0.4-0.5-0.6s-0.5-0.3-0.7-0.3S6,30.5,5.7,30.5H5.5c-0.3,0-0.6,0-0.9,0.1s-0.5,0.2-0.7,0.3s-0.4,0.3-0.5,0.6S3.2,32,3.2,32.3
		s0.1,0.6,0.2,0.8s0.3,0.4,0.5,0.6C4.1,33.9,4.4,34,4.6,34s0.6,0.1,0.9,0.1C5.5,34.1,5.7,34.1,5.7,34.1z"/>
	<path class="st0" d="M6.5,19.4l0.9-0.1l-0.9-0.2l-4-1v-0.7l4-1l1-0.2l-1-0.2l-4-0.7v-1l6.3,1.3v0.9l-3.9,1l-1,0.2l1,0.2l3.9,1v0.9
		l-6.3,1.3v-1L6.5,19.4z"/>
	<path class="st0" d="M2.4,4.7l0.9-0.1C3,4.4,2.8,4.2,2.6,3.8S2.3,3.1,2.3,2.7c0-0.3,0-0.6,0.1-0.9s0.2-0.5,0.4-0.7s0.5-0.3,0.8-0.4
		s0.7-0.2,1.1-0.2h4v1.1h-4c-0.3,0-0.5,0-0.7,0.1S3.7,1.8,3.6,2S3.4,2.2,3.3,2.4C3.2,2.6,3.2,2.8,3.2,3c0,0.4,0.1,0.7,0.3,1
		s0.4,0.5,0.7,0.6h4.5v1.1H2.4V4.7z"/>
</g>
</svg>
